<mxfile host="www.draw.io" modified="2019-10-25T13:00:37.391Z" agent="Mozilla/5.0 (X11; Ubuntu; Linux x86_64; rv:70.0) Gecko/20100101 Firefox/70.0" etag="bjyhxjD31n3QuePQGfmc" version="12.1.6" type="github" pages="1">
  <diagram id="d_cfS6SWb_KxHxdwD8Qj" name="Page-1">
    <mxGraphModel dx="934" dy="519" grid="1" gridSize="10" guides="1" tooltips="1" connect="1" arrows="1" fold="1" page="1" pageScale="1" pageWidth="3300" pageHeight="4681" math="1" shadow="0">
      <root>
        <mxCell id="0"/>
        <mxCell id="1" parent="0"/>
        <mxCell id="A4nzLeA4Wzo49Nar-VJ_-7" value="" style="group" parent="1" vertex="1" connectable="0">
          <mxGeometry x="240" y="1080" width="430" height="80" as="geometry"/>
        </mxCell>
        <mxCell id="A4nzLeA4Wzo49Nar-VJ_-3" value="" style="group" parent="A4nzLeA4Wzo49Nar-VJ_-7" vertex="1" connectable="0">
          <mxGeometry width="190" height="80" as="geometry"/>
        </mxCell>
        <mxCell id="A4nzLeA4Wzo49Nar-VJ_-1" value="&lt;div&gt;&lt;br&gt;&lt;/div&gt;&lt;div&gt;$$x_1$$&lt;br&gt;&lt;/div&gt;" style="ellipse;whiteSpace=wrap;html=1;aspect=fixed;fillColor=#ffe6cc;strokeColor=#d79b00;fontFamily=math;" parent="A4nzLeA4Wzo49Nar-VJ_-3" vertex="1">
          <mxGeometry width="80" height="80" as="geometry"/>
        </mxCell>
        <mxCell id="A4nzLeA4Wzo49Nar-VJ_-2" value="&lt;div&gt;&lt;br&gt;&lt;/div&gt;&lt;div&gt;$$x_2$$&lt;br&gt;&lt;/div&gt;" style="ellipse;whiteSpace=wrap;html=1;aspect=fixed;fillColor=#ffe6cc;strokeColor=#d79b00;" parent="A4nzLeA4Wzo49Nar-VJ_-3" vertex="1">
          <mxGeometry x="120" width="80" height="80" as="geometry"/>
        </mxCell>
        <mxCell id="A4nzLeA4Wzo49Nar-VJ_-4" value="" style="group" parent="A4nzLeA4Wzo49Nar-VJ_-7" vertex="1" connectable="0">
          <mxGeometry x="240" width="190" height="80" as="geometry"/>
        </mxCell>
        <mxCell id="A4nzLeA4Wzo49Nar-VJ_-5" value="&lt;div&gt;&lt;br&gt;&lt;/div&gt;&lt;div&gt;$$x_3$$&lt;br&gt;&lt;/div&gt;" style="ellipse;whiteSpace=wrap;html=1;aspect=fixed;fillColor=#ffe6cc;strokeColor=#d79b00;" parent="A4nzLeA4Wzo49Nar-VJ_-4" vertex="1">
          <mxGeometry width="80" height="80" as="geometry"/>
        </mxCell>
        <mxCell id="A4nzLeA4Wzo49Nar-VJ_-6" value="$$x_4$$" style="ellipse;whiteSpace=wrap;html=1;aspect=fixed;fillColor=#ffe6cc;strokeColor=#d79b00;" parent="A4nzLeA4Wzo49Nar-VJ_-4" vertex="1">
          <mxGeometry x="120" width="80" height="80" as="geometry"/>
        </mxCell>
        <mxCell id="A4nzLeA4Wzo49Nar-VJ_-16" value="" style="group" parent="1" vertex="1" connectable="0">
          <mxGeometry x="180" y="960" width="560" height="80" as="geometry"/>
        </mxCell>
        <mxCell id="A4nzLeA4Wzo49Nar-VJ_-9" value="" style="group" parent="A4nzLeA4Wzo49Nar-VJ_-16" vertex="1" connectable="0">
          <mxGeometry width="190" height="80" as="geometry"/>
        </mxCell>
        <mxCell id="A4nzLeA4Wzo49Nar-VJ_-10" value="" style="ellipse;whiteSpace=wrap;html=1;aspect=fixed;fillColor=#dae8fc;strokeColor=#6c8ebf;" parent="A4nzLeA4Wzo49Nar-VJ_-9" vertex="1">
          <mxGeometry width="80" height="80" as="geometry"/>
        </mxCell>
        <mxCell id="A4nzLeA4Wzo49Nar-VJ_-11" value="" style="ellipse;whiteSpace=wrap;html=1;aspect=fixed;fillColor=#dae8fc;strokeColor=#6c8ebf;" parent="A4nzLeA4Wzo49Nar-VJ_-9" vertex="1">
          <mxGeometry x="120" width="80" height="80" as="geometry"/>
        </mxCell>
        <mxCell id="A4nzLeA4Wzo49Nar-VJ_-12" value="" style="group" parent="A4nzLeA4Wzo49Nar-VJ_-16" vertex="1" connectable="0">
          <mxGeometry x="240" width="190" height="80" as="geometry"/>
        </mxCell>
        <mxCell id="A4nzLeA4Wzo49Nar-VJ_-13" value="" style="ellipse;whiteSpace=wrap;html=1;aspect=fixed;fillColor=#dae8fc;strokeColor=#6c8ebf;" parent="A4nzLeA4Wzo49Nar-VJ_-12" vertex="1">
          <mxGeometry width="80" height="80" as="geometry"/>
        </mxCell>
        <mxCell id="A4nzLeA4Wzo49Nar-VJ_-14" value="" style="ellipse;whiteSpace=wrap;html=1;aspect=fixed;fillColor=#dae8fc;strokeColor=#6c8ebf;" parent="A4nzLeA4Wzo49Nar-VJ_-12" vertex="1">
          <mxGeometry x="120" width="80" height="80" as="geometry"/>
        </mxCell>
        <mxCell id="A4nzLeA4Wzo49Nar-VJ_-15" value="" style="ellipse;whiteSpace=wrap;html=1;aspect=fixed;fillColor=#dae8fc;strokeColor=#6c8ebf;" parent="A4nzLeA4Wzo49Nar-VJ_-16" vertex="1">
          <mxGeometry x="480" width="80" height="80" as="geometry"/>
        </mxCell>
        <mxCell id="A4nzLeA4Wzo49Nar-VJ_-32" value="" style="group" parent="1" vertex="1" connectable="0">
          <mxGeometry x="180" y="840" width="560" height="80" as="geometry"/>
        </mxCell>
        <mxCell id="A4nzLeA4Wzo49Nar-VJ_-33" value="" style="group" parent="A4nzLeA4Wzo49Nar-VJ_-32" vertex="1" connectable="0">
          <mxGeometry width="190" height="80" as="geometry"/>
        </mxCell>
        <mxCell id="A4nzLeA4Wzo49Nar-VJ_-34" value="" style="ellipse;whiteSpace=wrap;html=1;aspect=fixed;fillColor=#dae8fc;strokeColor=#6c8ebf;" parent="A4nzLeA4Wzo49Nar-VJ_-33" vertex="1">
          <mxGeometry width="80" height="80" as="geometry"/>
        </mxCell>
        <mxCell id="A4nzLeA4Wzo49Nar-VJ_-35" value="" style="ellipse;whiteSpace=wrap;html=1;aspect=fixed;fillColor=#dae8fc;strokeColor=#6c8ebf;" parent="A4nzLeA4Wzo49Nar-VJ_-33" vertex="1">
          <mxGeometry x="120" width="80" height="80" as="geometry"/>
        </mxCell>
        <mxCell id="A4nzLeA4Wzo49Nar-VJ_-36" value="" style="group" parent="A4nzLeA4Wzo49Nar-VJ_-32" vertex="1" connectable="0">
          <mxGeometry x="240" width="190" height="80" as="geometry"/>
        </mxCell>
        <mxCell id="A4nzLeA4Wzo49Nar-VJ_-37" value="" style="ellipse;whiteSpace=wrap;html=1;aspect=fixed;fillColor=#dae8fc;strokeColor=#6c8ebf;" parent="A4nzLeA4Wzo49Nar-VJ_-36" vertex="1">
          <mxGeometry width="80" height="80" as="geometry"/>
        </mxCell>
        <mxCell id="A4nzLeA4Wzo49Nar-VJ_-38" value="" style="ellipse;whiteSpace=wrap;html=1;aspect=fixed;fillColor=#dae8fc;strokeColor=#6c8ebf;" parent="A4nzLeA4Wzo49Nar-VJ_-36" vertex="1">
          <mxGeometry x="120" width="80" height="80" as="geometry"/>
        </mxCell>
        <mxCell id="A4nzLeA4Wzo49Nar-VJ_-39" value="" style="ellipse;whiteSpace=wrap;html=1;aspect=fixed;fillColor=#dae8fc;strokeColor=#6c8ebf;" parent="A4nzLeA4Wzo49Nar-VJ_-32" vertex="1">
          <mxGeometry x="480" width="80" height="80" as="geometry"/>
        </mxCell>
        <mxCell id="A4nzLeA4Wzo49Nar-VJ_-40" value="" style="group" parent="1" vertex="1" connectable="0">
          <mxGeometry x="240" y="720" width="430" height="80" as="geometry"/>
        </mxCell>
        <mxCell id="A4nzLeA4Wzo49Nar-VJ_-41" value="" style="group" parent="A4nzLeA4Wzo49Nar-VJ_-40" vertex="1" connectable="0">
          <mxGeometry width="190" height="80" as="geometry"/>
        </mxCell>
        <mxCell id="A4nzLeA4Wzo49Nar-VJ_-42" value="&lt;div&gt;$$P(x_1)$$&lt;/div&gt;" style="ellipse;whiteSpace=wrap;html=1;aspect=fixed;fillColor=#ffe6cc;strokeColor=#d79b00;" parent="A4nzLeA4Wzo49Nar-VJ_-41" vertex="1">
          <mxGeometry width="80" height="80" as="geometry"/>
        </mxCell>
        <mxCell id="A4nzLeA4Wzo49Nar-VJ_-43" value="$$P(x_2|x_1)$$" style="ellipse;whiteSpace=wrap;html=1;aspect=fixed;fillColor=#ffe6cc;strokeColor=#d79b00;" parent="A4nzLeA4Wzo49Nar-VJ_-41" vertex="1">
          <mxGeometry x="120" width="80" height="80" as="geometry"/>
        </mxCell>
        <mxCell id="A4nzLeA4Wzo49Nar-VJ_-44" value="" style="group" parent="A4nzLeA4Wzo49Nar-VJ_-40" vertex="1" connectable="0">
          <mxGeometry x="240" width="190" height="80" as="geometry"/>
        </mxCell>
        <mxCell id="A4nzLeA4Wzo49Nar-VJ_-45" value="&lt;div&gt;$$P(x_3|x_{1:3})$$&lt;/div&gt;" style="ellipse;whiteSpace=wrap;html=1;aspect=fixed;fillColor=#ffe6cc;strokeColor=#d79b00;" parent="A4nzLeA4Wzo49Nar-VJ_-44" vertex="1">
          <mxGeometry width="80" height="80" as="geometry"/>
        </mxCell>
        <mxCell id="A4nzLeA4Wzo49Nar-VJ_-46" value="&lt;div&gt;$$P(x_4|x_{1:4})$$&lt;/div&gt;" style="ellipse;whiteSpace=wrap;html=1;aspect=fixed;fillColor=#ffe6cc;strokeColor=#d79b00;" parent="A4nzLeA4Wzo49Nar-VJ_-44" vertex="1">
          <mxGeometry x="120" width="80" height="80" as="geometry"/>
        </mxCell>
        <mxCell id="A4nzLeA4Wzo49Nar-VJ_-48" value="" style="endArrow=none;html=1;entryX=0.5;entryY=1;entryDx=0;entryDy=0;exitX=0.5;exitY=0;exitDx=0;exitDy=0;" parent="1" source="A4nzLeA4Wzo49Nar-VJ_-1" target="A4nzLeA4Wzo49Nar-VJ_-10" edge="1">
          <mxGeometry width="50" height="50" relative="1" as="geometry">
            <mxPoint x="180" y="1230" as="sourcePoint"/>
            <mxPoint x="230" y="1180" as="targetPoint"/>
          </mxGeometry>
        </mxCell>
        <mxCell id="A4nzLeA4Wzo49Nar-VJ_-49" value="" style="endArrow=none;html=1;entryX=0.5;entryY=1;entryDx=0;entryDy=0;exitX=0.5;exitY=0;exitDx=0;exitDy=0;" parent="1" source="A4nzLeA4Wzo49Nar-VJ_-1" target="A4nzLeA4Wzo49Nar-VJ_-11" edge="1">
          <mxGeometry width="50" height="50" relative="1" as="geometry">
            <mxPoint x="290" y="1089.9999999999998" as="sourcePoint"/>
            <mxPoint x="230" y="1049.9999999999998" as="targetPoint"/>
          </mxGeometry>
        </mxCell>
        <mxCell id="A4nzLeA4Wzo49Nar-VJ_-50" value="" style="endArrow=none;html=1;entryX=0.5;entryY=1;entryDx=0;entryDy=0;exitX=0.5;exitY=0;exitDx=0;exitDy=0;" parent="1" source="A4nzLeA4Wzo49Nar-VJ_-1" target="A4nzLeA4Wzo49Nar-VJ_-13" edge="1">
          <mxGeometry width="50" height="50" relative="1" as="geometry">
            <mxPoint x="300" y="1099.9999999999998" as="sourcePoint"/>
            <mxPoint x="240" y="1059.9999999999998" as="targetPoint"/>
          </mxGeometry>
        </mxCell>
        <mxCell id="A4nzLeA4Wzo49Nar-VJ_-51" value="" style="endArrow=none;html=1;entryX=0.5;entryY=1;entryDx=0;entryDy=0;exitX=0.5;exitY=0;exitDx=0;exitDy=0;" parent="1" source="A4nzLeA4Wzo49Nar-VJ_-1" target="A4nzLeA4Wzo49Nar-VJ_-14" edge="1">
          <mxGeometry width="50" height="50" relative="1" as="geometry">
            <mxPoint x="310" y="1109.9999999999998" as="sourcePoint"/>
            <mxPoint x="250" y="1069.9999999999998" as="targetPoint"/>
          </mxGeometry>
        </mxCell>
        <mxCell id="A4nzLeA4Wzo49Nar-VJ_-52" value="" style="endArrow=none;html=1;entryX=0.5;entryY=1;entryDx=0;entryDy=0;" parent="1" target="A4nzLeA4Wzo49Nar-VJ_-15" edge="1">
          <mxGeometry width="50" height="50" relative="1" as="geometry">
            <mxPoint x="280" y="1080" as="sourcePoint"/>
            <mxPoint x="260" y="1079.9999999999998" as="targetPoint"/>
          </mxGeometry>
        </mxCell>
        <mxCell id="A4nzLeA4Wzo49Nar-VJ_-53" value="" style="endArrow=none;html=1;exitX=0.5;exitY=0;exitDx=0;exitDy=0;" parent="1" source="A4nzLeA4Wzo49Nar-VJ_-2" edge="1">
          <mxGeometry width="50" height="50" relative="1" as="geometry">
            <mxPoint x="330" y="1129.9999999999998" as="sourcePoint"/>
            <mxPoint x="220" y="1040" as="targetPoint"/>
          </mxGeometry>
        </mxCell>
        <mxCell id="A4nzLeA4Wzo49Nar-VJ_-54" value="" style="endArrow=none;html=1;exitX=0.5;exitY=0;exitDx=0;exitDy=0;" parent="1" source="A4nzLeA4Wzo49Nar-VJ_-5" edge="1">
          <mxGeometry width="50" height="50" relative="1" as="geometry">
            <mxPoint x="340" y="1139.9999999999998" as="sourcePoint"/>
            <mxPoint x="220" y="1040" as="targetPoint"/>
          </mxGeometry>
        </mxCell>
        <mxCell id="A4nzLeA4Wzo49Nar-VJ_-55" value="" style="endArrow=none;html=1;exitX=0.5;exitY=0;exitDx=0;exitDy=0;" parent="1" source="A4nzLeA4Wzo49Nar-VJ_-6" edge="1">
          <mxGeometry width="50" height="50" relative="1" as="geometry">
            <mxPoint x="350" y="1149.9999999999998" as="sourcePoint"/>
            <mxPoint x="220" y="1040" as="targetPoint"/>
          </mxGeometry>
        </mxCell>
        <mxCell id="A4nzLeA4Wzo49Nar-VJ_-56" value="" style="endArrow=none;html=1;entryX=0.5;entryY=1;entryDx=0;entryDy=0;exitX=0.5;exitY=0;exitDx=0;exitDy=0;" parent="1" source="A4nzLeA4Wzo49Nar-VJ_-2" target="A4nzLeA4Wzo49Nar-VJ_-11" edge="1">
          <mxGeometry width="50" height="50" relative="1" as="geometry">
            <mxPoint x="360" y="1159.9999999999998" as="sourcePoint"/>
            <mxPoint x="300" y="1119.9999999999998" as="targetPoint"/>
          </mxGeometry>
        </mxCell>
        <mxCell id="A4nzLeA4Wzo49Nar-VJ_-57" value="" style="endArrow=none;html=1;exitX=0.5;exitY=0;exitDx=0;exitDy=0;" parent="1" source="A4nzLeA4Wzo49Nar-VJ_-5" edge="1">
          <mxGeometry width="50" height="50" relative="1" as="geometry">
            <mxPoint x="370" y="1169.9999999999998" as="sourcePoint"/>
            <mxPoint x="340" y="1040" as="targetPoint"/>
          </mxGeometry>
        </mxCell>
        <mxCell id="A4nzLeA4Wzo49Nar-VJ_-58" value="" style="endArrow=none;html=1;entryX=0.5;entryY=1;entryDx=0;entryDy=0;" parent="1" target="A4nzLeA4Wzo49Nar-VJ_-11" edge="1">
          <mxGeometry width="50" height="50" relative="1" as="geometry">
            <mxPoint x="640" y="1080" as="sourcePoint"/>
            <mxPoint x="320" y="1139.9999999999998" as="targetPoint"/>
          </mxGeometry>
        </mxCell>
        <mxCell id="A4nzLeA4Wzo49Nar-VJ_-59" value="" style="endArrow=none;html=1;entryX=0.5;entryY=1;entryDx=0;entryDy=0;exitX=0.5;exitY=0;exitDx=0;exitDy=0;" parent="1" source="A4nzLeA4Wzo49Nar-VJ_-5" target="A4nzLeA4Wzo49Nar-VJ_-13" edge="1">
          <mxGeometry width="50" height="50" relative="1" as="geometry">
            <mxPoint x="390" y="1189.9999999999998" as="sourcePoint"/>
            <mxPoint x="330" y="1149.9999999999998" as="targetPoint"/>
          </mxGeometry>
        </mxCell>
        <mxCell id="A4nzLeA4Wzo49Nar-VJ_-60" value="" style="endArrow=none;html=1;entryX=0.5;entryY=0;entryDx=0;entryDy=0;" parent="1" target="A4nzLeA4Wzo49Nar-VJ_-2" edge="1">
          <mxGeometry width="50" height="50" relative="1" as="geometry">
            <mxPoint x="460" y="1040" as="sourcePoint"/>
            <mxPoint x="340" y="1159.9999999999998" as="targetPoint"/>
          </mxGeometry>
        </mxCell>
        <mxCell id="A4nzLeA4Wzo49Nar-VJ_-61" value="" style="endArrow=none;html=1;entryX=0.5;entryY=0;entryDx=0;entryDy=0;" parent="1" target="A4nzLeA4Wzo49Nar-VJ_-2" edge="1">
          <mxGeometry width="50" height="50" relative="1" as="geometry">
            <mxPoint x="580" y="1040" as="sourcePoint"/>
            <mxPoint x="350" y="1169.9999999999998" as="targetPoint"/>
          </mxGeometry>
        </mxCell>
        <mxCell id="A4nzLeA4Wzo49Nar-VJ_-62" value="" style="endArrow=none;html=1;exitX=0.5;exitY=1;exitDx=0;exitDy=0;" parent="1" source="A4nzLeA4Wzo49Nar-VJ_-15" edge="1">
          <mxGeometry width="50" height="50" relative="1" as="geometry">
            <mxPoint x="420" y="1219.9999999999998" as="sourcePoint"/>
            <mxPoint x="400" y="1080" as="targetPoint"/>
          </mxGeometry>
        </mxCell>
        <mxCell id="A4nzLeA4Wzo49Nar-VJ_-63" value="" style="endArrow=none;html=1;" parent="1" edge="1">
          <mxGeometry width="50" height="50" relative="1" as="geometry">
            <mxPoint x="580" y="1040" as="sourcePoint"/>
            <mxPoint x="520" y="1080" as="targetPoint"/>
          </mxGeometry>
        </mxCell>
        <mxCell id="A4nzLeA4Wzo49Nar-VJ_-64" value="" style="endArrow=none;html=1;exitX=0.5;exitY=1;exitDx=0;exitDy=0;" parent="1" source="A4nzLeA4Wzo49Nar-VJ_-15" edge="1">
          <mxGeometry width="50" height="50" relative="1" as="geometry">
            <mxPoint x="440" y="1239.9999999999998" as="sourcePoint"/>
            <mxPoint x="520" y="1080" as="targetPoint"/>
          </mxGeometry>
        </mxCell>
        <mxCell id="A4nzLeA4Wzo49Nar-VJ_-65" value="" style="endArrow=none;html=1;" parent="1" edge="1">
          <mxGeometry width="50" height="50" relative="1" as="geometry">
            <mxPoint x="220" y="1040" as="sourcePoint"/>
            <mxPoint x="640" y="1080" as="targetPoint"/>
          </mxGeometry>
        </mxCell>
        <mxCell id="A4nzLeA4Wzo49Nar-VJ_-66" value="" style="endArrow=none;html=1;entryX=0.5;entryY=0;entryDx=0;entryDy=0;exitX=0.5;exitY=1;exitDx=0;exitDy=0;" parent="1" source="A4nzLeA4Wzo49Nar-VJ_-11" target="A4nzLeA4Wzo49Nar-VJ_-6" edge="1">
          <mxGeometry width="50" height="50" relative="1" as="geometry">
            <mxPoint x="460" y="1259.9999999999998" as="sourcePoint"/>
            <mxPoint x="400" y="1219.9999999999998" as="targetPoint"/>
          </mxGeometry>
        </mxCell>
        <mxCell id="A4nzLeA4Wzo49Nar-VJ_-67" value="" style="endArrow=none;html=1;entryX=0.5;entryY=0;entryDx=0;entryDy=0;exitX=0.5;exitY=1;exitDx=0;exitDy=0;" parent="1" source="A4nzLeA4Wzo49Nar-VJ_-13" target="A4nzLeA4Wzo49Nar-VJ_-6" edge="1">
          <mxGeometry width="50" height="50" relative="1" as="geometry">
            <mxPoint x="470" y="1269.9999999999998" as="sourcePoint"/>
            <mxPoint x="410" y="1229.9999999999998" as="targetPoint"/>
          </mxGeometry>
        </mxCell>
        <mxCell id="A4nzLeA4Wzo49Nar-VJ_-68" value="" style="endArrow=none;html=1;" parent="1" edge="1">
          <mxGeometry width="50" height="50" relative="1" as="geometry">
            <mxPoint x="580" y="1040" as="sourcePoint"/>
            <mxPoint x="640" y="1080" as="targetPoint"/>
          </mxGeometry>
        </mxCell>
        <mxCell id="A4nzLeA4Wzo49Nar-VJ_-69" value="" style="endArrow=none;html=1;" parent="1" edge="1">
          <mxGeometry width="50" height="50" relative="1" as="geometry">
            <mxPoint x="700" y="1040" as="sourcePoint"/>
            <mxPoint x="640" y="1080" as="targetPoint"/>
          </mxGeometry>
        </mxCell>
        <mxCell id="A4nzLeA4Wzo49Nar-VJ_-70" value="" style="endArrow=none;html=1;entryX=0.5;entryY=1;entryDx=0;entryDy=0;exitX=0.5;exitY=0;exitDx=0;exitDy=0;" parent="1" source="A4nzLeA4Wzo49Nar-VJ_-10" target="A4nzLeA4Wzo49Nar-VJ_-34" edge="1">
          <mxGeometry width="50" height="50" relative="1" as="geometry">
            <mxPoint x="170" y="969.9999999999998" as="sourcePoint"/>
            <mxPoint x="110" y="929.9999999999998" as="targetPoint"/>
          </mxGeometry>
        </mxCell>
        <mxCell id="A4nzLeA4Wzo49Nar-VJ_-71" value="" style="endArrow=none;html=1;entryX=0.5;entryY=1;entryDx=0;entryDy=0;exitX=0.5;exitY=0;exitDx=0;exitDy=0;" parent="1" source="A4nzLeA4Wzo49Nar-VJ_-10" target="A4nzLeA4Wzo49Nar-VJ_-35" edge="1">
          <mxGeometry width="50" height="50" relative="1" as="geometry">
            <mxPoint x="180" y="979.9999999999998" as="sourcePoint"/>
            <mxPoint x="120" y="939.9999999999998" as="targetPoint"/>
          </mxGeometry>
        </mxCell>
        <mxCell id="A4nzLeA4Wzo49Nar-VJ_-72" value="" style="endArrow=none;html=1;entryX=0.5;entryY=1;entryDx=0;entryDy=0;" parent="1" target="A4nzLeA4Wzo49Nar-VJ_-37" edge="1">
          <mxGeometry width="50" height="50" relative="1" as="geometry">
            <mxPoint x="220" y="960" as="sourcePoint"/>
            <mxPoint x="456" y="922" as="targetPoint"/>
          </mxGeometry>
        </mxCell>
        <mxCell id="A4nzLeA4Wzo49Nar-VJ_-73" value="" style="endArrow=none;html=1;entryX=0.5;entryY=1;entryDx=0;entryDy=0;exitX=0.5;exitY=0;exitDx=0;exitDy=0;" parent="1" source="A4nzLeA4Wzo49Nar-VJ_-10" target="A4nzLeA4Wzo49Nar-VJ_-38" edge="1">
          <mxGeometry width="50" height="50" relative="1" as="geometry">
            <mxPoint x="200" y="999.9999999999998" as="sourcePoint"/>
            <mxPoint x="140" y="959.9999999999998" as="targetPoint"/>
          </mxGeometry>
        </mxCell>
        <mxCell id="A4nzLeA4Wzo49Nar-VJ_-74" value="" style="endArrow=none;html=1;entryX=0.5;entryY=1;entryDx=0;entryDy=0;" parent="1" target="A4nzLeA4Wzo49Nar-VJ_-39" edge="1">
          <mxGeometry width="50" height="50" relative="1" as="geometry">
            <mxPoint x="220" y="960" as="sourcePoint"/>
            <mxPoint x="150" y="969.9999999999998" as="targetPoint"/>
          </mxGeometry>
        </mxCell>
        <mxCell id="A4nzLeA4Wzo49Nar-VJ_-75" value="" style="endArrow=none;html=1;exitX=0.5;exitY=0;exitDx=0;exitDy=0;" parent="1" source="A4nzLeA4Wzo49Nar-VJ_-11" edge="1">
          <mxGeometry width="50" height="50" relative="1" as="geometry">
            <mxPoint x="220" y="1019.9999999999998" as="sourcePoint"/>
            <mxPoint x="220" y="920" as="targetPoint"/>
          </mxGeometry>
        </mxCell>
        <mxCell id="A4nzLeA4Wzo49Nar-VJ_-76" value="" style="endArrow=none;html=1;exitX=0.5;exitY=0;exitDx=0;exitDy=0;" parent="1" source="A4nzLeA4Wzo49Nar-VJ_-11" edge="1">
          <mxGeometry width="50" height="50" relative="1" as="geometry">
            <mxPoint x="230" y="1029.9999999999998" as="sourcePoint"/>
            <mxPoint x="340" y="920" as="targetPoint"/>
          </mxGeometry>
        </mxCell>
        <mxCell id="A4nzLeA4Wzo49Nar-VJ_-77" value="" style="endArrow=none;html=1;exitX=0.5;exitY=0;exitDx=0;exitDy=0;" parent="1" source="A4nzLeA4Wzo49Nar-VJ_-13" edge="1">
          <mxGeometry width="50" height="50" relative="1" as="geometry">
            <mxPoint x="240" y="1039.9999999999998" as="sourcePoint"/>
            <mxPoint x="460" y="920" as="targetPoint"/>
          </mxGeometry>
        </mxCell>
        <mxCell id="A4nzLeA4Wzo49Nar-VJ_-78" value="" style="endArrow=none;html=1;entryX=0.5;entryY=1;entryDx=0;entryDy=0;exitX=0.5;exitY=0;exitDx=0;exitDy=0;" parent="1" source="A4nzLeA4Wzo49Nar-VJ_-13" target="A4nzLeA4Wzo49Nar-VJ_-35" edge="1">
          <mxGeometry width="50" height="50" relative="1" as="geometry">
            <mxPoint x="120" y="889.9999999999998" as="sourcePoint"/>
            <mxPoint x="60" y="849.9999999999998" as="targetPoint"/>
          </mxGeometry>
        </mxCell>
        <mxCell id="A4nzLeA4Wzo49Nar-VJ_-79" value="" style="endArrow=none;html=1;exitX=0.5;exitY=0;exitDx=0;exitDy=0;" parent="1" source="A4nzLeA4Wzo49Nar-VJ_-11" edge="1">
          <mxGeometry width="50" height="50" relative="1" as="geometry">
            <mxPoint x="130" y="899.9999999999998" as="sourcePoint"/>
            <mxPoint x="570" y="920" as="targetPoint"/>
          </mxGeometry>
        </mxCell>
        <mxCell id="A4nzLeA4Wzo49Nar-VJ_-80" value="" style="endArrow=none;html=1;" parent="1" edge="1">
          <mxGeometry width="50" height="50" relative="1" as="geometry">
            <mxPoint x="340" y="960" as="sourcePoint"/>
            <mxPoint x="460" y="920" as="targetPoint"/>
          </mxGeometry>
        </mxCell>
        <mxCell id="A4nzLeA4Wzo49Nar-VJ_-81" value="" style="endArrow=none;html=1;entryX=0.5;entryY=1;entryDx=0;entryDy=0;exitX=0.5;exitY=0;exitDx=0;exitDy=0;" parent="1" source="A4nzLeA4Wzo49Nar-VJ_-13" target="A4nzLeA4Wzo49Nar-VJ_-34" edge="1">
          <mxGeometry width="50" height="50" relative="1" as="geometry">
            <mxPoint x="150" y="919.9999999999998" as="sourcePoint"/>
            <mxPoint x="90" y="879.9999999999998" as="targetPoint"/>
          </mxGeometry>
        </mxCell>
        <mxCell id="A4nzLeA4Wzo49Nar-VJ_-82" value="" style="endArrow=none;html=1;exitX=0.5;exitY=0;exitDx=0;exitDy=0;" parent="1" source="A4nzLeA4Wzo49Nar-VJ_-13" edge="1">
          <mxGeometry width="50" height="50" relative="1" as="geometry">
            <mxPoint x="160" y="929.9999999999998" as="sourcePoint"/>
            <mxPoint x="580" y="920" as="targetPoint"/>
          </mxGeometry>
        </mxCell>
        <mxCell id="A4nzLeA4Wzo49Nar-VJ_-83" value="" style="endArrow=none;html=1;entryX=0.5;entryY=1;entryDx=0;entryDy=0;exitX=0.5;exitY=0;exitDx=0;exitDy=0;" parent="1" source="A4nzLeA4Wzo49Nar-VJ_-13" target="A4nzLeA4Wzo49Nar-VJ_-39" edge="1">
          <mxGeometry width="50" height="50" relative="1" as="geometry">
            <mxPoint x="170" y="939.9999999999998" as="sourcePoint"/>
            <mxPoint x="110" y="899.9999999999998" as="targetPoint"/>
          </mxGeometry>
        </mxCell>
        <mxCell id="A4nzLeA4Wzo49Nar-VJ_-84" value="" style="endArrow=none;html=1;entryX=0.5;entryY=1;entryDx=0;entryDy=0;exitX=0.5;exitY=0;exitDx=0;exitDy=0;" parent="1" source="A4nzLeA4Wzo49Nar-VJ_-14" target="A4nzLeA4Wzo49Nar-VJ_-34" edge="1">
          <mxGeometry width="50" height="50" relative="1" as="geometry">
            <mxPoint x="120" y="929.9999999999998" as="sourcePoint"/>
            <mxPoint x="60" y="889.9999999999998" as="targetPoint"/>
          </mxGeometry>
        </mxCell>
        <mxCell id="A4nzLeA4Wzo49Nar-VJ_-85" value="" style="endArrow=none;html=1;exitX=0.5;exitY=0;exitDx=0;exitDy=0;" parent="1" source="A4nzLeA4Wzo49Nar-VJ_-14" edge="1">
          <mxGeometry width="50" height="50" relative="1" as="geometry">
            <mxPoint x="130" y="939.9999999999998" as="sourcePoint"/>
            <mxPoint x="340" y="920" as="targetPoint"/>
          </mxGeometry>
        </mxCell>
        <mxCell id="A4nzLeA4Wzo49Nar-VJ_-86" value="" style="endArrow=none;html=1;exitX=0.5;exitY=0;exitDx=0;exitDy=0;" parent="1" source="A4nzLeA4Wzo49Nar-VJ_-14" edge="1">
          <mxGeometry width="50" height="50" relative="1" as="geometry">
            <mxPoint x="140" y="949.9999999999998" as="sourcePoint"/>
            <mxPoint x="460" y="920" as="targetPoint"/>
          </mxGeometry>
        </mxCell>
        <mxCell id="A4nzLeA4Wzo49Nar-VJ_-87" value="" style="endArrow=none;html=1;" parent="1" edge="1">
          <mxGeometry width="50" height="50" relative="1" as="geometry">
            <mxPoint x="580" y="960" as="sourcePoint"/>
            <mxPoint x="580" y="920" as="targetPoint"/>
          </mxGeometry>
        </mxCell>
        <mxCell id="A4nzLeA4Wzo49Nar-VJ_-88" value="" style="endArrow=none;html=1;entryX=0.5;entryY=1;entryDx=0;entryDy=0;exitX=0.5;exitY=0;exitDx=0;exitDy=0;" parent="1" source="A4nzLeA4Wzo49Nar-VJ_-14" target="A4nzLeA4Wzo49Nar-VJ_-39" edge="1">
          <mxGeometry width="50" height="50" relative="1" as="geometry">
            <mxPoint x="160" y="969.9999999999998" as="sourcePoint"/>
            <mxPoint x="100" y="929.9999999999998" as="targetPoint"/>
          </mxGeometry>
        </mxCell>
        <mxCell id="A4nzLeA4Wzo49Nar-VJ_-89" value="" style="endArrow=none;html=1;entryX=0.5;entryY=1;entryDx=0;entryDy=0;exitX=0.5;exitY=0;exitDx=0;exitDy=0;" parent="1" source="A4nzLeA4Wzo49Nar-VJ_-15" target="A4nzLeA4Wzo49Nar-VJ_-34" edge="1">
          <mxGeometry width="50" height="50" relative="1" as="geometry">
            <mxPoint x="170" y="979.9999999999998" as="sourcePoint"/>
            <mxPoint x="110" y="939.9999999999998" as="targetPoint"/>
          </mxGeometry>
        </mxCell>
        <mxCell id="A4nzLeA4Wzo49Nar-VJ_-90" value="" style="endArrow=none;html=1;entryX=0.5;entryY=1;entryDx=0;entryDy=0;" parent="1" target="A4nzLeA4Wzo49Nar-VJ_-35" edge="1">
          <mxGeometry width="50" height="50" relative="1" as="geometry">
            <mxPoint x="700" y="960" as="sourcePoint"/>
            <mxPoint x="90" y="949.9999999999998" as="targetPoint"/>
          </mxGeometry>
        </mxCell>
        <mxCell id="A4nzLeA4Wzo49Nar-VJ_-95" value="" style="endArrow=none;html=1;entryX=0.5;entryY=0;entryDx=0;entryDy=0;" parent="1" target="A4nzLeA4Wzo49Nar-VJ_-15" edge="1">
          <mxGeometry width="50" height="50" relative="1" as="geometry">
            <mxPoint x="460" y="920" as="sourcePoint"/>
            <mxPoint x="230" y="1180" as="targetPoint"/>
          </mxGeometry>
        </mxCell>
        <mxCell id="A4nzLeA4Wzo49Nar-VJ_-96" value="" style="endArrow=none;html=1;entryX=0.5;entryY=0;entryDx=0;entryDy=0;" parent="1" target="A4nzLeA4Wzo49Nar-VJ_-15" edge="1">
          <mxGeometry width="50" height="50" relative="1" as="geometry">
            <mxPoint x="580" y="920" as="sourcePoint"/>
            <mxPoint x="240" y="1190" as="targetPoint"/>
          </mxGeometry>
        </mxCell>
        <mxCell id="A4nzLeA4Wzo49Nar-VJ_-97" value="" style="endArrow=none;html=1;entryX=0.5;entryY=0;entryDx=0;entryDy=0;" parent="1" target="A4nzLeA4Wzo49Nar-VJ_-15" edge="1">
          <mxGeometry width="50" height="50" relative="1" as="geometry">
            <mxPoint x="700" y="920" as="sourcePoint"/>
            <mxPoint x="250" y="1200" as="targetPoint"/>
          </mxGeometry>
        </mxCell>
        <mxCell id="2pLgjLXHmvWhtLP6S5SO-1" value="" style="endArrow=none;html=1;entryX=0.5;entryY=1;entryDx=0;entryDy=0;exitX=0.5;exitY=0;exitDx=0;exitDy=0;" edge="1" parent="1" source="A4nzLeA4Wzo49Nar-VJ_-34" target="A4nzLeA4Wzo49Nar-VJ_-42">
          <mxGeometry width="50" height="50" relative="1" as="geometry">
            <mxPoint x="180" y="1230" as="sourcePoint"/>
            <mxPoint x="230" y="1180" as="targetPoint"/>
          </mxGeometry>
        </mxCell>
        <mxCell id="2pLgjLXHmvWhtLP6S5SO-2" value="" style="endArrow=none;html=1;entryX=0.5;entryY=1;entryDx=0;entryDy=0;exitX=0.5;exitY=0;exitDx=0;exitDy=0;" edge="1" parent="1" source="A4nzLeA4Wzo49Nar-VJ_-34" target="A4nzLeA4Wzo49Nar-VJ_-45">
          <mxGeometry width="50" height="50" relative="1" as="geometry">
            <mxPoint x="100" y="820" as="sourcePoint"/>
            <mxPoint x="160" y="780" as="targetPoint"/>
          </mxGeometry>
        </mxCell>
        <mxCell id="2pLgjLXHmvWhtLP6S5SO-3" value="" style="endArrow=none;html=1;entryX=0.446;entryY=1.004;entryDx=0;entryDy=0;exitX=0.5;exitY=0;exitDx=0;exitDy=0;entryPerimeter=0;" edge="1" parent="1" source="A4nzLeA4Wzo49Nar-VJ_-34" target="A4nzLeA4Wzo49Nar-VJ_-43">
          <mxGeometry width="50" height="50" relative="1" as="geometry">
            <mxPoint x="110" y="830" as="sourcePoint"/>
            <mxPoint x="170" y="790" as="targetPoint"/>
          </mxGeometry>
        </mxCell>
        <mxCell id="2pLgjLXHmvWhtLP6S5SO-4" value="" style="endArrow=none;html=1;entryX=0.5;entryY=1;entryDx=0;entryDy=0;exitX=0.5;exitY=0;exitDx=0;exitDy=0;" edge="1" parent="1" source="A4nzLeA4Wzo49Nar-VJ_-34" target="A4nzLeA4Wzo49Nar-VJ_-46">
          <mxGeometry width="50" height="50" relative="1" as="geometry">
            <mxPoint x="120" y="840" as="sourcePoint"/>
            <mxPoint x="180" y="800" as="targetPoint"/>
          </mxGeometry>
        </mxCell>
        <mxCell id="2pLgjLXHmvWhtLP6S5SO-5" value="" style="endArrow=none;html=1;exitX=0.5;exitY=0;exitDx=0;exitDy=0;" edge="1" parent="1" source="A4nzLeA4Wzo49Nar-VJ_-35">
          <mxGeometry width="50" height="50" relative="1" as="geometry">
            <mxPoint x="130" y="850" as="sourcePoint"/>
            <mxPoint x="280" y="800" as="targetPoint"/>
          </mxGeometry>
        </mxCell>
        <mxCell id="2pLgjLXHmvWhtLP6S5SO-6" value="" style="endArrow=none;html=1;exitX=0.5;exitY=0;exitDx=0;exitDy=0;entryX=0.5;entryY=1;entryDx=0;entryDy=0;" edge="1" parent="1" source="A4nzLeA4Wzo49Nar-VJ_-35" target="A4nzLeA4Wzo49Nar-VJ_-43">
          <mxGeometry width="50" height="50" relative="1" as="geometry">
            <mxPoint x="140" y="860" as="sourcePoint"/>
            <mxPoint x="390" y="800" as="targetPoint"/>
          </mxGeometry>
        </mxCell>
        <mxCell id="2pLgjLXHmvWhtLP6S5SO-7" value="" style="endArrow=none;html=1;exitX=0.5;exitY=0;exitDx=0;exitDy=0;" edge="1" parent="1" source="A4nzLeA4Wzo49Nar-VJ_-35">
          <mxGeometry width="50" height="50" relative="1" as="geometry">
            <mxPoint x="150" y="870" as="sourcePoint"/>
            <mxPoint x="520" y="800" as="targetPoint"/>
          </mxGeometry>
        </mxCell>
        <mxCell id="2pLgjLXHmvWhtLP6S5SO-8" value="" style="endArrow=none;html=1;exitX=0.5;exitY=0;exitDx=0;exitDy=0;" edge="1" parent="1" source="A4nzLeA4Wzo49Nar-VJ_-35">
          <mxGeometry width="50" height="50" relative="1" as="geometry">
            <mxPoint x="160" y="880" as="sourcePoint"/>
            <mxPoint x="640" y="800" as="targetPoint"/>
          </mxGeometry>
        </mxCell>
        <mxCell id="2pLgjLXHmvWhtLP6S5SO-9" value="" style="endArrow=none;html=1;entryX=0.5;entryY=0;entryDx=0;entryDy=0;exitX=0.5;exitY=1;exitDx=0;exitDy=0;" edge="1" parent="1" source="A4nzLeA4Wzo49Nar-VJ_-42" target="A4nzLeA4Wzo49Nar-VJ_-37">
          <mxGeometry width="50" height="50" relative="1" as="geometry">
            <mxPoint x="170" y="890" as="sourcePoint"/>
            <mxPoint x="230" y="850" as="targetPoint"/>
          </mxGeometry>
        </mxCell>
        <mxCell id="2pLgjLXHmvWhtLP6S5SO-11" value="" style="endArrow=none;html=1;exitX=0.5;exitY=0;exitDx=0;exitDy=0;" edge="1" parent="1" source="A4nzLeA4Wzo49Nar-VJ_-37">
          <mxGeometry width="50" height="50" relative="1" as="geometry">
            <mxPoint x="70" y="790" as="sourcePoint"/>
            <mxPoint x="400" y="800" as="targetPoint"/>
          </mxGeometry>
        </mxCell>
        <mxCell id="2pLgjLXHmvWhtLP6S5SO-12" value="" style="endArrow=none;html=1;" edge="1" parent="1">
          <mxGeometry width="50" height="50" relative="1" as="geometry">
            <mxPoint x="460" y="840" as="sourcePoint"/>
            <mxPoint x="520" y="800" as="targetPoint"/>
          </mxGeometry>
        </mxCell>
        <mxCell id="2pLgjLXHmvWhtLP6S5SO-13" value="" style="endArrow=none;html=1;exitX=0.5;exitY=0;exitDx=0;exitDy=0;entryX=0.5;entryY=1;entryDx=0;entryDy=0;" edge="1" parent="1" source="A4nzLeA4Wzo49Nar-VJ_-37" target="A4nzLeA4Wzo49Nar-VJ_-46">
          <mxGeometry width="50" height="50" relative="1" as="geometry">
            <mxPoint x="90" y="810" as="sourcePoint"/>
            <mxPoint x="140" y="760" as="targetPoint"/>
          </mxGeometry>
        </mxCell>
        <mxCell id="2pLgjLXHmvWhtLP6S5SO-14" value="" style="endArrow=none;html=1;exitX=0.5;exitY=0;exitDx=0;exitDy=0;" edge="1" parent="1" source="A4nzLeA4Wzo49Nar-VJ_-38">
          <mxGeometry width="50" height="50" relative="1" as="geometry">
            <mxPoint x="100" y="820" as="sourcePoint"/>
            <mxPoint x="280" y="800" as="targetPoint"/>
          </mxGeometry>
        </mxCell>
        <mxCell id="2pLgjLXHmvWhtLP6S5SO-15" value="" style="endArrow=none;html=1;exitX=0.5;exitY=0;exitDx=0;exitDy=0;entryX=0.558;entryY=1.03;entryDx=0;entryDy=0;entryPerimeter=0;" edge="1" parent="1" source="A4nzLeA4Wzo49Nar-VJ_-38" target="A4nzLeA4Wzo49Nar-VJ_-43">
          <mxGeometry width="50" height="50" relative="1" as="geometry">
            <mxPoint x="110" y="830" as="sourcePoint"/>
            <mxPoint x="160" y="780" as="targetPoint"/>
          </mxGeometry>
        </mxCell>
        <mxCell id="2pLgjLXHmvWhtLP6S5SO-16" value="" style="endArrow=none;html=1;exitX=0.5;exitY=0;exitDx=0;exitDy=0;entryX=0.5;entryY=1;entryDx=0;entryDy=0;" edge="1" parent="1" source="A4nzLeA4Wzo49Nar-VJ_-38" target="A4nzLeA4Wzo49Nar-VJ_-45">
          <mxGeometry width="50" height="50" relative="1" as="geometry">
            <mxPoint x="120" y="840" as="sourcePoint"/>
            <mxPoint x="170" y="790" as="targetPoint"/>
          </mxGeometry>
        </mxCell>
        <mxCell id="2pLgjLXHmvWhtLP6S5SO-17" value="" style="endArrow=none;html=1;entryX=0.5;entryY=1;entryDx=0;entryDy=0;" edge="1" parent="1" target="A4nzLeA4Wzo49Nar-VJ_-46">
          <mxGeometry width="50" height="50" relative="1" as="geometry">
            <mxPoint x="580" y="840" as="sourcePoint"/>
            <mxPoint x="180" y="800" as="targetPoint"/>
          </mxGeometry>
        </mxCell>
        <mxCell id="2pLgjLXHmvWhtLP6S5SO-18" value="" style="endArrow=none;html=1;exitX=0.5;exitY=0;exitDx=0;exitDy=0;" edge="1" parent="1" source="A4nzLeA4Wzo49Nar-VJ_-39">
          <mxGeometry width="50" height="50" relative="1" as="geometry">
            <mxPoint x="140" y="860" as="sourcePoint"/>
            <mxPoint x="280" y="800" as="targetPoint"/>
          </mxGeometry>
        </mxCell>
        <mxCell id="2pLgjLXHmvWhtLP6S5SO-19" value="" style="endArrow=none;html=1;exitX=0.5;exitY=0;exitDx=0;exitDy=0;" edge="1" parent="1" source="A4nzLeA4Wzo49Nar-VJ_-39">
          <mxGeometry width="50" height="50" relative="1" as="geometry">
            <mxPoint x="150" y="870" as="sourcePoint"/>
            <mxPoint x="400" y="800" as="targetPoint"/>
          </mxGeometry>
        </mxCell>
        <mxCell id="2pLgjLXHmvWhtLP6S5SO-20" value="" style="endArrow=none;html=1;exitX=0.5;exitY=0;exitDx=0;exitDy=0;" edge="1" parent="1" source="A4nzLeA4Wzo49Nar-VJ_-39">
          <mxGeometry width="50" height="50" relative="1" as="geometry">
            <mxPoint x="160" y="880" as="sourcePoint"/>
            <mxPoint x="520" y="800" as="targetPoint"/>
          </mxGeometry>
        </mxCell>
        <mxCell id="2pLgjLXHmvWhtLP6S5SO-21" value="" style="endArrow=none;html=1;entryX=0.5;entryY=0;entryDx=0;entryDy=0;" edge="1" parent="1" target="A4nzLeA4Wzo49Nar-VJ_-39">
          <mxGeometry width="50" height="50" relative="1" as="geometry">
            <mxPoint x="640" y="800" as="sourcePoint"/>
            <mxPoint x="220" y="840" as="targetPoint"/>
          </mxGeometry>
        </mxCell>
      </root>
    </mxGraphModel>
  </diagram>
</mxfile>
